HIERARCHY
ROOT root
{
	OFFSET 0.000000 0.000000 0.000000
	CHANNELS 6 Xposition Yposition Zposition Zrotation Yrotation Xrotation
	JOINT lhip
	{
		OFFSET 0.058581 -0.082280 -0.017664
		CHANNELS 3 Zrotation Yrotation Xrotation
		JOINT lknee
		{
			OFFSET 0.043451 -0.386469 0.008037
			CHANNELS 3 Zrotation Yrotation Xrotation
			JOINT lankle
			{
				OFFSET -0.014790 -0.426874 -0.037428
				CHANNELS 3 Zrotation Yrotation Xrotation
				JOINT ltoe
				{
					OFFSET 0.041054 -0.060286 0.122042
					CHANNELS 3 Zrotation Yrotation Xrotation
					End Site
					{
						OFFSET 0.000000 0.000000 0.000000
					}
				}
			}
		}
	}
	JOINT rhip
	{
		OFFSET -0.060310 -0.090513 -0.013543
		CHANNELS 3 Zrotation Yrotation Xrotation
		JOINT rknee
		{
			OFFSET -0.043257 -0.383688 -0.004843
			CHANNELS 3 Zrotation Yrotation Xrotation
			JOINT rankle
			{
				OFFSET 0.019056 -0.420046 -0.034562
				CHANNELS 3 Zrotation Yrotation Xrotation
				JOINT rtoe
				{
					OFFSET -0.034840 -0.062106 0.130323
					CHANNELS 3 Zrotation Yrotation Xrotation
					End Site
					{
						OFFSET 0.000000 0.000000 0.000000
					}
				}
			}
		}
	}
	JOINT lowerback
	{
		OFFSET 0.004439 0.124404 -0.038385
		CHANNELS 3 Zrotation Yrotation Xrotation
		JOINT upperback
		{
			OFFSET 0.004488 0.137956 0.026820
			CHANNELS 3 Zrotation Yrotation Xrotation
			JOINT chest
			{
				OFFSET -0.002265 0.056032 0.002855
				CHANNELS 3 Zrotation Yrotation Xrotation
				JOINT lowerneck
				{
					OFFSET -0.013390 0.211636 -0.033468
					CHANNELS 3 Zrotation Yrotation Xrotation
					JOINT upperneck
					{
						OFFSET 0.010113 0.088937 0.050410
						CHANNELS 3 Zrotation Yrotation Xrotation
						End Site
						{
							OFFSET 0.000000 0.000000 0.000000
						}
					}
				}
				JOINT lclavicle
				{
					OFFSET 0.071702 0.114000 -0.018898
					CHANNELS 3 Zrotation Yrotation Xrotation
					JOINT lshoulder
					{
						OFFSET 0.122921 0.045205 -0.019046
						CHANNELS 3 Zrotation Yrotation Xrotation
						JOINT lelbow
						{
							OFFSET 0.255332 -0.015649 -0.022946
							CHANNELS 3 Zrotation Yrotation Xrotation
							JOINT lwrist
							{
								OFFSET 0.265709 0.012698 -0.007375
								CHANNELS 3 Zrotation Yrotation Xrotation
								End Site
								{
									OFFSET 0.000000 0.000000 0.000000
								}
							}
						}
					}
				}
				JOINT rclavicle
				{
					OFFSET -0.082954 0.112472 -0.023707
					CHANNELS 3 Zrotation Yrotation Xrotation
					JOINT rshoulder
					{
						OFFSET -0.113228 0.046853 -0.008472
						CHANNELS 3 Zrotation Yrotation Xrotation
						JOINT relbow
						{
							OFFSET -0.260127 -0.014369 -0.031269
							CHANNELS 3 Zrotation Yrotation Xrotation
							JOINT rwrist
							{
								OFFSET -0.269108 0.006794 -0.006027
								CHANNELS 3 Zrotation Yrotation Xrotation
								End Site
								{
									OFFSET 0.000000 0.000000 0.000000
								}
							}
						}
					}
				}
			}
		}
	}
}
MOTION
Frames: 7
Frame Time: 0.033333
0.727235 0.683366 0.915466 -88.807663 0.393073 84.128741 0.242023 -5.963266 -18.136194 -8.892837 -5.657980 46.225528 5.643511 13.534548 -31.496270 0.000000 -0.000000 0.000000 1.182726 0.286087 -14.857624 -1.527380 -3.535471 42.806684 0.288130 -12.872600 -32.547092 0.000000 -0.000000 0.000000 -0.014380 5.061365 17.588952 -0.779780 0.906489 -4.435291 -1.536979 1.380335 4.559444 4.840302 6.367525 -11.072986 2.532485 -6.086837 -0.550822 -21.552254 -4.143115 -1.125574 -51.943192 -6.971152 10.876962 -4.037056 -16.982794 14.920405 -3.338629 -3.270909 -5.719833 21.410597 4.683207 0.884730 58.879000 0.985803 16.103617 -4.866131 29.478068 9.054553 -0.267319 2.253341 -11.116395 
0.729191 0.682766 0.914268 -89.505852 0.218411 84.288344 0.210589 -5.930402 -18.554952 -8.943977 -5.212635 46.383515 5.535156 13.867381 -31.565418 0.000000 -0.000000 0.000000 0.781175 0.661540 -15.556131 -1.001480 -3.397212 43.309048 0.541566 -12.984420 -32.557177 0.000000 -0.000000 0.000000 -0.278776 5.269604 17.792209 -0.552373 0.826328 -4.220728 -1.482933 1.028522 4.820311 5.007527 4.262497 -10.962622 2.877256 -8.455130 -1.132005 -21.433452 -4.046206 -1.124022 -51.005038 -7.378002 10.640875 -3.692929 -17.572423 13.347592 -3.253315 -3.461561 -5.817109 21.534149 4.837083 0.337726 57.500976 1.559875 15.852822 -5.529336 30.423836 7.873089 0.596485 2.487741 -11.880142 
0.731877 0.682592 0.913133 -90.129791 0.270131 84.569079 0.565693 -5.917784 -19.447607 -9.063556 -4.602097 47.013454 5.378698 14.016304 -31.672368 0.000000 -0.000000 0.000000 0.697953 0.983875 -16.518661 -0.733360 -3.304654 43.986291 0.627935 -12.830950 -32.481924 0.000000 -0.000000 0.000000 -0.342929 5.208785 18.204186 -0.313856 0.659522 -4.307644 -1.465910 1.029114 5.002232 5.039942 3.159534 -11.085141 2.832681 -9.834800 -1.375681 -21.106710 -4.029671 -1.261591 -50.140408 -7.688662 10.401443 -3.589814 -17.739727 12.465026 -3.014663 -4.025354 -5.834957 21.458595 4.997850 -0.005617 56.477242 2.203945 15.599553 -5.687746 30.883769 7.065680 0.044402 3.039380 -12.387989 
0.734450 0.681981 0.911590 -91.300349 0.167348 84.809614 0.671187 -5.568383 -20.123766 -8.907146 -3.889626 47.446141 5.296169 14.189258 -31.835735 0.000000 -0.000000 0.000000 0.536967 1.484429 -17.550919 -0.491442 -2.938151 44.806026 0.573055 -12.567460 -32.502955 0.000000 -0.000000 0.000000 -0.500692 5.141387 18.756372 -0.202245 0.727873 -4.091817 -1.334812 0.846265 5.020444 4.921167 2.769557 -11.192551 2.846277 -10.397564 -1.899380 -21.071513 -4.407573 -1.189286 -48.985816 -7.806613 10.039342 -3.349757 -18.079891 11.122896 -3.041070 -4.760893 -6.109631 21.538101 5.524325 -0.044464 54.949146 3.039860 15.296566 -5.990316 31.798357 5.890959 0.048419 3.463920 -13.001455 
0.736971 0.681822 0.910427 -91.798418 0.174785 85.047996 0.838739 -5.576481 -20.822161 -8.897235 -3.485957 47.894803 5.160435 14.323303 -31.842151 0.000000 -0.000000 0.000000 0.457080 1.631944 -18.354939 -0.299490 -2.879194 45.339176 0.652543 -12.507537 -32.466866 0.000000 -0.000000 0.000000 -0.572113 5.062016 19.218019 -0.056234 0.637884 -4.130800 -1.229044 0.702681 5.168643 4.833360 2.950231 -11.552261 2.694710 -10.247988 -2.232199 -21.028514 -4.544927 -1.305874 -48.348214 -8.080419 9.805654 -3.493473 -18.343549 10.338684 -2.772352 -5.284332 -6.247793 21.552743 5.688529 -0.269640 53.815725 3.740076 15.252226 -5.640055 32.294152 5.863704 0.087367 3.914757 -12.993180 
0.739912 0.681238 0.908696 -92.403765 0.193926 85.433825 1.023430 -5.514975 -21.744099 -8.839093 -2.989471 48.426923 5.092204 14.423924 -31.947941 0.000000 -0.000000 0.000000 0.367769 1.876825 -19.470616 -0.060404 -2.751658 46.040298 0.693604 -12.362718 -32.463653 0.000000 -0.000000 0.000000 -0.562536 4.832931 19.924680 -0.015516 0.510166 -4.216793 -1.093248 0.566625 5.162266 4.772418 3.115796 -12.039126 2.588347 -9.960055 -2.614885 -20.979712 -4.870284 -1.344271 -47.534900 -8.281874 9.677573 -3.472608 -19.037207 9.331541 -2.778755 -5.740851 -6.826271 21.516430 6.129067 -0.295365 52.103993 4.717992 15.212004 -4.985049 33.032573 6.406441 0.867726 4.281587 -12.847368 
0.743065 0.681030 0.906737 -93.036593 0.255677 85.915661 1.363236 -5.413225 -22.824753 -8.804927 -2.394742 48.969442 4.959392 14.437760 -32.140618 0.000000 -0.000000 0.000000 0.348024 2.291171 -20.729574 0.058288 -2.692973 46.780109 0.673868 -12.261364 -32.397176 0.000000 -0.000000 0.000000 -0.683164 4.608159 20.377698 0.102266 0.491336 -4.012590 -0.845293 0.457858 5.099114 4.564027 3.534749 -12.479125 2.467995 -9.313907 -3.220387 -20.793916 -5.467817 -1.324439 -46.770686 -8.596161 9.587100 -3.396570 -19.559989 8.446268 -3.055808 -6.499646 -7.545000 21.175489 6.750775 -0.175343 50.151458 5.768757 15.138675 -3.973626 33.651912 7.732643 2.265819 4.801934 -12.845972 
